<svg xmlns="http://www.w3.org/2000/svg" width="100" height="100" viewBox="0 0 100 100"><g transform="translate(1167 -1363)"><circle cx="50" cy="50" r="50" transform="translate(-1167 1363)" fill="#202020"/><g transform="translate(120.601 -20.499)"><path d="M37.451,77.026c-6.8,0-13.593-.062-20.389.062-1.792,0-2.162-.494-2.162-2.224A13.7,13.7,0,0,1,28.43,60.9c.989,0,1.421.556,2.039,1.112,4.325,3.645,9.02,3.645,13.345-.062a2.835,2.835,0,0,1,3.027-.8,30.968,30.968,0,0,1,8.217,3.46,10.273,10.273,0,0,1,4.387,11.554c-.432,1.483-1.483.865-2.224.865Z" transform="translate(-1274.5 1378.959)" fill="#dcdcdc"/><path d="M54.771,24.885A9.885,9.885,0,1,1,45.009,15,9.941,9.941,0,0,1,54.771,24.885Z" transform="translate(-1282.182 1396.5)" fill="#dcdcdc"/></g></g></svg>